<?xml version="1.0" encoding="utf-8"?>
<!-- Generator: Adobe Illustrator 19.2.1, SVG Export Plug-In . SVG Version: 6.00 Build 0)  -->
<svg version="1.1" xmlns="http://www.w3.org/2000/svg" xmlns:xlink="http://www.w3.org/1999/xlink" x="0px" y="0px"
	 viewBox="0 0 24 24" style="enable-background:new 0 0 24 24;" xml:space="preserve">
<style type="text/css">
	.st0{display:none;}
	.st1{display:inline;fill:#23659B;}
	.st2{display:inline;fill:#A9D7F7;}
	.st3{display:inline;fill:#468FC1;}
	.st4{display:inline;}
	.st5{fill:#45739E;}
	.st6{fill:#366691;}
	.st7{fill:#295A7F;}
	.st8{fill:#4F85B2;}
	.st9{fill:#A0C2DC;}
	.st10{fill:#74A5D1;}
	.st11{fill:#B0D3EB;}
	.st12{fill:#D0E6F4;}
	.st13{fill:#ECEFF1;}
	.st14{fill:#3C3C3B;}
	.st15{fill:#C6E2F7;}
	.st16{fill:#6D9DC3;}
	.st17{display:inline;fill:#C6E2F7;}
	.st18{display:inline;fill:#6D9DC3;}
	.st19{display:inline;fill:#2E608D;}
	.st20{display:inline;fill:#45739E;}
	.st21{display:inline;fill:#B0D3EB;}
	.st22{display:inline;fill:#88B5D9;}
	.st23{fill:#5780A6;}
	.st24{fill:#CAEDFF;}
	.st25{fill:#8CADCA;}
	.st26{display:inline;fill:#CAEDFF;}
	.st27{display:inline;fill:#FFFFFF;}
	.st28{fill:#FFFFFF;}
	.st29{display:inline;fill:#558EAA;}
	.st30{display:inline;fill:#A8E1F4;}
	.st31{display:inline;fill:#A0C2DC;}
	.st32{display:inline;fill:#D0E6F4;}
	.st33{display:inline;fill:none;stroke:#E6007E;stroke-width:0.1;stroke-miterlimit:10;}
	.st34{fill:#B0BEC5;}
	.st35{display:inline;fill:#3C3C3B;}
	.st36{fill:#6EAFDB;}
	.st37{fill:#CCDEEA;}
	.st38{fill:#435568;}
	.st39{display:inline;fill:#435568;}
	.st40{fill:#98A5AE;}
	.st41{fill:#73818B;}
	.st42{fill:#BAC4CC;}
	.st43{display:inline;fill:#366691;}
	.st44{fill:#B71C1C;}
	.st45{display:inline;fill:#1595CE;}
	.st46{display:inline;fill:#10608C;}
	.st47{display:inline;fill:#86D7F7;}
	.st48{fill:#1595CE;}
	.st49{fill:#10608C;}
	.st50{fill:#1D1D1B;}
	.st51{fill:#468FC1;}
	.st52{fill:#23659B;}
	.st53{fill:#A9D7F7;}
	.st54{fill:#2D758E;}
	.st55{fill:#215F75;}
	.st56{fill:#558EAA;}
	.st57{fill:#6DAAC9;}
	.st58{fill:#A8E1F4;}
	.st59{fill:#6699CC;}
	.st60{fill:#308FC4;}
	.st61{fill:#2A7BA8;}
	.st62{fill:#22668C;}
	.st63{fill:#60B4E2;}
	.st64{fill:#88C9ED;}
	.st65{fill:#A1E0FF;}
	.st66{fill:#37A1DB;}
	.st67{display:inline;fill:#00BCD4;}
	.st68{display:inline;fill:#00838F;}
	.st69{display:inline;fill:#80DEEA;}
	.st70{display:inline;fill:#196189;}
	.st71{display:inline;fill:#1D73A8;}
	.st72{display:inline;fill:#175477;}
	.st73{display:inline;fill:#4B8EBF;}
	.st74{display:inline;fill:#84CBF7;}
	.st75{display:inline;fill:#5DA3D8;}
	.st76{display:inline;fill:#A7DAF9;}
	.st77{display:inline;fill:#C7E7FF;}
	.st78{display:inline;fill:#37A1DB;}
	.st79{display:inline;fill:#2A7BA8;}
	.st80{display:inline;fill:#A1E0FF;}
	.st81{fill:#2E8FBF;}
	.st82{fill:#297CA5;}
	.st83{fill:#216789;}
	.st84{fill:#5FB5E0;}
	.st85{fill:#87C7E8;}
	.st86{fill:#A0D9F3;}
	.st87{fill:#35A2D8;}
	.st88{fill:#1384BC;}
	.st89{fill:#4CB7E0;}
	.st90{fill:#86D7F7;}
	.st91{fill:#B3E5FC;}
	.st92{fill:#1E7AA8;}
	.st93{fill:#1D83B5;}
	.st94{fill:#206E99;}
	.st95{fill:#1F5F7F;}
	.st96{fill:#89BADB;}
	.st97{fill:#64ACD8;}
	.st98{fill:#A2CDEA;}
	.st99{fill:#C0DEF2;}
	.st100{fill:#A7DAF9;}
	.st101{fill:#2A6A9B;}
	.st102{fill:#5DA3D8;}
	.st103{fill:#63AAC6;}
	.st104{fill:#26778C;}
	.st105{fill:#9EE0F2;}
	.st106{fill:#1D73A8;}
	.st107{display:inline;fill:#616161;}
	.st108{display:inline;fill:#FAFAFA;}
	.st109{fill:#1C6072;}
	.st110{fill:#B7DAF9;}
	.st111{fill:#5EA2E5;}
	.st112{fill:#EBEDEF;}
	.st113{fill:#52606A;}
	.st114{fill:#0D6ACC;}
	.st115{fill:#9BCDF9;}
	.st116{fill:#4E8EA8;}
	.st117{fill:#84CBF7;}
	.st118{fill:#175477;}
	.st119{fill:#62AEDD;}
	.st120{fill:#DCDFE2;}
	.st121{fill:#D50000;}
	.st122{fill:none;stroke:#5EA2E5;stroke-miterlimit:10;}
	.st123{fill:none;stroke:#1D73A8;stroke-width:2;stroke-miterlimit:10;}
	.st124{fill:none;stroke:#E6007E;stroke-width:0.1;stroke-miterlimit:10;}
	.st125{fill:#196189;}
	.st126{fill:#9C27B0;}
	.st127{fill:#3F51B5;}
	.st128{fill:#2196F3;}
	.st129{fill:#FFEB3B;}
	.st130{fill:#FF9800;}
	.st131{fill:#4CAF50;}
	.st132{filter:url(#AI_Alpha_1);}
	.st133{fill:none;}
	.st134{fill:#3D83E0;}
	.st135{fill:#005899;}
</style>
<g id="SAFE" class="st0">
</g>
<g id="Ebene_1">
	<g>
		<rect class="st28" width="24" height="24"/>
	</g>
</g>
<g id="BG" class="st0">
	<rect x="-618" y="-349" class="st107" width="1213" height="696.7"/>
</g>
<g id="BG_2" class="st0">
	<rect x="-618" y="-349" class="st108" width="1213" height="696.7"/>
</g>
<g id="Icons">
	<g>
		<rect x="8" y="9" class="st109" width="15" height="15"/>
		<path class="st14" d="M23,9v14H9V9H23 M24,8h-1H9H8v1v14v1h1h14h1v-1V9V8L24,8z"/>
	</g>
	<g>
		<path class="st105" d="M19,16c0,0-2,2.2-2,3.5c0,1.1,0.9,2,2,2s2-0.9,2-2C21,18.2,19,16,19,16z"/>
	</g>
	<g>
		<path class="st103" d="M10,3l-8.4,8.6c-0.8,0.8-0.8,2,0,2.8l7.2,7.2c0.8,0.8,2,0.8,2.8,0L20,13L10,3z"/>
	</g>
	<g>
		<path class="st105" d="M2.5,14.2l6.3,6.3c0.7,0.7,1.8,0.7,2.5,0l7.3-7.5L2,13C2,13.4,2.2,13.9,2.5,14.2z"/>
	</g>
	<g>
		<rect x="9" y="2" class="st109" width="2" height="9"/>
	</g>
	<g>
		<path class="st14" d="M11,2v2l9,9l-8.4,8.6c-0.4,0.4-0.9,0.6-1.4,0.6s-1-0.2-1.4-0.6l-7.2-7.2c-0.8-0.8-0.8-2,0-2.8L9,4V2H11
			 M12,1h-1H9H8v1v1.6l-7.1,7.3C0.3,11.4,0,12.2,0,13s0.3,1.6,0.9,2.1l7.2,7.2c0.6,0.6,1.3,0.9,2.1,0.9s1.6-0.3,2.1-0.9l8.4-8.6
			l0.7-0.7l-0.7-0.7L12,3.6V2V1L12,1z"/>
	</g>
</g>
</svg>
