<?xml version="1.0" encoding="utf-8"?>
<!-- Generator: Adobe Illustrator 19.2.1, SVG Export Plug-In . SVG Version: 6.00 Build 0)  -->
<svg version="1.1" xmlns="http://www.w3.org/2000/svg" xmlns:xlink="http://www.w3.org/1999/xlink" x="0px" y="0px"
	 viewBox="0 0 24 24" style="enable-background:new 0 0 24 24;" xml:space="preserve">
<style type="text/css">
	.st0{display:none;}
	.st1{display:inline;fill:#23659B;}
	.st2{display:inline;fill:#A9D7F7;}
	.st3{display:inline;fill:#468FC1;}
	.st4{display:inline;}
	.st5{fill:#45739E;}
	.st6{fill:#366691;}
	.st7{fill:#295A7F;}
	.st8{fill:#4F85B2;}
	.st9{fill:#A0C2DC;}
	.st10{fill:#74A5D1;}
	.st11{fill:#B0D3EB;}
	.st12{fill:#D0E6F4;}
	.st13{fill:#ECEFF1;}
	.st14{fill:#3C3C3B;}
	.st15{fill:#C6E2F7;}
	.st16{fill:#6D9DC3;}
	.st17{display:inline;fill:#C6E2F7;}
	.st18{display:inline;fill:#6D9DC3;}
	.st19{display:inline;fill:#2E608D;}
	.st20{display:inline;fill:#45739E;}
	.st21{display:inline;fill:#B0D3EB;}
	.st22{display:inline;fill:#88B5D9;}
	.st23{fill:#5780A6;}
	.st24{fill:#CAEDFF;}
	.st25{fill:#8CADCA;}
	.st26{display:inline;fill:#CAEDFF;}
	.st27{display:inline;fill:#FFFFFF;}
	.st28{fill:#FFFFFF;}
	.st29{display:inline;fill:#558EAA;}
	.st30{display:inline;fill:#A8E1F4;}
	.st31{display:inline;fill:#A0C2DC;}
	.st32{display:inline;fill:#D0E6F4;}
	.st33{display:inline;fill:none;stroke:#E6007E;stroke-width:0.1;stroke-miterlimit:10;}
	.st34{fill:#B0BEC5;}
	.st35{display:inline;fill:#3C3C3B;}
	.st36{fill:#6EAFDB;}
	.st37{fill:#CCDEEA;}
	.st38{fill:#435568;}
	.st39{display:inline;fill:#435568;}
	.st40{fill:#98A5AE;}
	.st41{fill:#73818B;}
	.st42{fill:#BAC4CC;}
	.st43{display:inline;fill:#366691;}
	.st44{fill:#B71C1C;}
	.st45{display:inline;fill:#1595CE;}
	.st46{display:inline;fill:#10608C;}
	.st47{display:inline;fill:#86D7F7;}
	.st48{fill:#1595CE;}
	.st49{fill:#10608C;}
	.st50{fill:#1D1D1B;}
	.st51{fill:#468FC1;}
	.st52{fill:#23659B;}
	.st53{fill:#A9D7F7;}
	.st54{fill:#2D758E;}
	.st55{fill:#215F75;}
	.st56{fill:#558EAA;}
	.st57{fill:#6DAAC9;}
	.st58{fill:#A8E1F4;}
	.st59{fill:#6699CC;}
	.st60{fill:#308FC4;}
	.st61{fill:#2A7BA8;}
	.st62{fill:#22668C;}
	.st63{fill:#60B4E2;}
	.st64{fill:#88C9ED;}
	.st65{fill:#A1E0FF;}
	.st66{fill:#37A1DB;}
	.st67{display:inline;fill:#00BCD4;}
	.st68{display:inline;fill:#00838F;}
	.st69{display:inline;fill:#80DEEA;}
	.st70{display:inline;fill:#196189;}
	.st71{display:inline;fill:#1D73A8;}
	.st72{display:inline;fill:#175477;}
	.st73{display:inline;fill:#4B8EBF;}
	.st74{display:inline;fill:#84CBF7;}
	.st75{display:inline;fill:#5DA3D8;}
	.st76{display:inline;fill:#A7DAF9;}
	.st77{display:inline;fill:#C7E7FF;}
	.st78{display:inline;fill:#37A1DB;}
	.st79{display:inline;fill:#2A7BA8;}
	.st80{display:inline;fill:#A1E0FF;}
	.st81{fill:#2E8FBF;}
	.st82{fill:#297CA5;}
	.st83{fill:#216789;}
	.st84{fill:#5FB5E0;}
	.st85{fill:#87C7E8;}
	.st86{fill:#A0D9F3;}
	.st87{fill:#35A2D8;}
	.st88{fill:#1384BC;}
	.st89{fill:#4CB7E0;}
	.st90{fill:#86D7F7;}
	.st91{fill:#B3E5FC;}
	.st92{fill:#1E7AA8;}
	.st93{fill:#1D83B5;}
	.st94{fill:#206E99;}
	.st95{fill:#1F5F7F;}
	.st96{fill:#89BADB;}
	.st97{fill:#64ACD8;}
	.st98{fill:#A2CDEA;}
	.st99{fill:#C0DEF2;}
	.st100{fill:#A7DAF9;}
	.st101{fill:#2A6A9B;}
	.st102{fill:#5DA3D8;}
	.st103{fill:#63AAC6;}
	.st104{fill:#26778C;}
	.st105{fill:#9EE0F2;}
	.st106{fill:#1D73A8;}
	.st107{display:inline;fill:#616161;}
	.st108{display:inline;fill:#FAFAFA;}
	.st109{fill:#1C6072;}
	.st110{fill:#B7DAF9;}
	.st111{fill:#5EA2E5;}
	.st112{fill:#EBEDEF;}
	.st113{fill:#52606A;}
	.st114{fill:#0D6ACC;}
	.st115{fill:#9BCDF9;}
	.st116{fill:#4E8EA8;}
	.st117{fill:#84CBF7;}
	.st118{fill:#175477;}
	.st119{fill:#62AEDD;}
	.st120{fill:#DCDFE2;}
	.st121{fill:#D50000;}
	.st122{fill:none;stroke:#5EA2E5;stroke-miterlimit:10;}
	.st123{fill:none;stroke:#1D73A8;stroke-width:2;stroke-miterlimit:10;}
	.st124{fill:none;stroke:#E6007E;stroke-width:0.1;stroke-miterlimit:10;}
	.st125{fill:#196189;}
	.st126{fill:#9C27B0;}
	.st127{fill:#3F51B5;}
	.st128{fill:#2196F3;}
	.st129{fill:#FFEB3B;}
	.st130{fill:#FF9800;}
	.st131{fill:#4CAF50;}
	.st132{filter:url(#AI_Alpha_1);}
	.st133{fill:none;}
	.st134{fill:#3D83E0;}
	.st135{fill:#005899;}
</style>
<filter  filterUnits="objectBoundingBox" height="100%" id="AI_Alpha_1" width="100%" x="0%" y="0%">
	<feTurbulence  baseFrequency="0.05" numOctaves="2" result="turb" stitchTiles="noStitch" type="turbulence"></feTurbulence>
	<feComposite  in="SourceGraphic" in2="turb" operator="in"></feComposite>
</filter>
<g id="SAFE" class="st0">
</g>
<g id="Ebene_1">
</g>
<g id="BG" class="st0">
	<rect x="-730" y="-414" class="st107" width="1213" height="696.7"/>
</g>
<g id="BG_2" class="st0">
	<rect x="-730" y="-414" class="st108" width="1213" height="696.7"/>
</g>
<g id="Icons">
	<g>
		<g>
			<path class="st126" d="M2.8,4C5.5,6.1,9,8.3,11,10.5c0-3.5,0-7,0-10.5C8,0,4.8,1.5,2.8,4z"/>
			<path class="st127" d="M1.3,12.8c3.4-0.8,6.8-1.6,10.2-2.3C8.8,8.3,6,6.1,3.3,4C1.3,6.5,0.6,9.7,1.3,12.8z"/>
			<path class="st128" d="M1.3,12.8C2,16,4.1,18.6,6.9,20c1.5-3.2,3-6.3,4.6-9.5C8.1,11.3,4.7,12.1,1.3,12.8z"/>
			<path class="st129" d="M21.7,12.8c-3.4-0.8-6.8-1.6-10.2-2.3c1.5,3.2,3,6.3,4.6,9.5C18.9,18.6,21,16,21.7,12.8z"/>
			<path class="st130" d="M21.7,12.8c0.7-3.1,0-6.4-2-8.9c-2.7,2.2-5.5,4.4-8.2,6.5C14.9,11.3,18.3,12.1,21.7,12.8z"/>
			<path class="st131" d="M6.9,20c2.9,1.4,6.2,1.4,9.1,0c-1.5-3.2-3-6.3-4.6-9.5C10,13.7,8.5,16.8,6.9,20z"/>
			<path class="st121" d="M11,0c0,3.5,0,7,0,10.5c3-2.2,5.5-4.4,8.2-6.5C17.2,1.5,15,0,11,0z"/>
		</g>
		<g class="st132">
			<circle class="st28" cx="11.5" cy="10.5" r="10"/>
		</g>
		<g>
			<path class="st14" d="M11.5,1c5.2,0,9.5,4.3,9.5,9.5S16.7,20,11.5,20S2,15.7,2,10.5S6.3,1,11.5,1 M11.5,0C5.7,0,1,4.7,1,10.5
				S5.7,21,11.5,21S22,16.3,22,10.5S17.3,0,11.5,0L11.5,0z"/>
		</g>
	</g>
	<g>
		<rect x="15" y="10" class="st28" width="6" height="11"/>
		<g>
			<g>
				<path class="st102" d="M17.7,23.5c-1.3,0-2.3-0.2-3.2-0.5c-0.8-0.4-1.5-0.8-1.9-1.4c-0.5-0.5-1-1.1-1.2-1.8
					c-0.1-0.6-0.5-1.1-0.5-1.6V18h4v0.2c0,0.2,0.1,0.3,0.2,0.6c0,0.2,0.2,0.4,0.3,0.6c0.1,0.2,0.4,0.3,0.7,0.5
					C16.5,20,17,20,17.5,20c0.3,0,0.6,0,0.9-0.1c0.3,0,0.5-0.1,0.8-0.2c0.2-0.1,0.3-0.2,0.5-0.4c0.1-0.2,0.2-0.4,0.2-0.6
					c0-0.2,0-0.3-0.1-0.4c-0.1-0.1-0.2-0.2-0.3-0.3c-0.2-0.1-0.4-0.2-0.7-0.3c-0.3-0.1-0.6-0.2-1-0.3l-1.4-0.4
					c-0.6-0.1-1.1-0.3-1.6-0.4c-0.6-0.2-1.1-0.4-1.5-0.8c-0.5-0.3-0.8-0.8-1.1-1.3c-0.3-0.6-0.4-1.3-0.4-2.1c0-0.3,0-0.6,0.1-1
					c0.1-0.4,0.2-0.7,0.3-1.1c0.2-0.4,0.4-0.7,0.6-1.1c0.3-0.4,0.6-0.7,1.1-0.9c0.4-0.3,0.9-0.5,1.5-0.6c0.6-0.2,1.3-0.2,2-0.2
					c1.1,0,2,0.2,2.8,0.5c0.7,0.3,1.3,0.8,1.8,1.3c0.4,0.5,0.7,1.1,0.9,1.7c0.2,0.6,0.2,1.1,0.2,1.6V13h-3.5l-0.1-0.4
					c0-0.1-0.1-0.3-0.1-0.5c0-0.2-0.1-0.3-0.3-0.5c-0.1-0.2-0.4-0.3-0.6-0.4C18.1,11,17.7,11,17.1,11c-0.2,0-0.5,0-0.7,0.1
					c-0.2,0-0.4,0.1-0.6,0.2c-0.2,0.1-0.3,0.2-0.4,0.4c-0.1,0.1-0.1,0.3-0.1,0.5c0,0.2,0,0.3,0.1,0.5c0.1,0.1,0.1,0.2,0.2,0.3
					c0.1,0.1,0.2,0.1,0.3,0.2l0.4,0.1l3.3,0.9c0.5,0.1,0.9,0.3,1.4,0.5c0.5,0.2,0.9,0.5,1.3,0.8c0.4,0.3,0.7,0.8,0.9,1.3
					c0.2,0.5,0.3,1.1,0.3,1.8c0,0.8-0.1,1.5-0.3,2c-0.2,0.6-0.5,1.1-0.9,1.4c-0.4,0.4-0.8,0.7-1.2,0.9c-0.4,0.2-0.9,0.4-1.3,0.5
					c-0.4,0.1-0.8,0.2-1.2,0.2C18.2,23.5,17.9,23.5,17.7,23.5z"/>
				<path class="st14" d="M17.4,8c1,0,1.9,0.2,2.5,0.5c0.7,0.3,1.2,0.7,1.6,1.2c0.4,0.5,0.7,1.2,0.8,1.7c0.2,0.5,0.2,0.7,0.2,1.7
					h-2.7c0-1-0.1-0.6-0.1-0.8c-0.1-0.2-0.2-0.6-0.4-0.8s-0.5-0.5-0.8-0.6c-0.4-0.2-0.8-0.3-1.4-0.3c-0.3,0-0.5,0-0.8,0.1
					c-0.3,0.1-0.5,0.1-0.8,0.3c-0.2,0.1-0.4,0.3-0.5,0.5c-0.1,0.2-0.2,0.5-0.2,0.8c0,0.3,0,0.5,0.1,0.7c0.1,0.2,0.2,0.3,0.4,0.4
					s0.3,0.2,0.5,0.2c0.2,0.1,0.3,0.1,0.5,0.1l3.3,0.9c0.5,0.1,0.9,0.3,1.3,0.4c0.4,0.2,0.8,0.4,1.1,0.7c0.3,0.3,0.6,0.7,0.8,1.1
					c0.2,0.4,0.3,1,0.3,1.6c0,0.7-0.1,1.3-0.3,1.8c-0.2,0.5-0.5,0.9-0.8,1.3s-0.7,0.6-1.1,0.8c-0.4,0.2-0.8,0.4-1.2,0.5
					c-0.4,0.1-0.8,0.2-1.1,0.2c-0.3,0-0.6,0-0.8,0c-1.2,0-2.2-0.2-3-0.5s-1.3-0.7-1.7-1.2c-0.4-0.5-0.7-1.1-0.8-1.7
					C12.1,19.1,12,19,12,18h2.7c0,0,0,0.5,0.1,0.8c0.1,0.3,0.2,0.6,0.4,0.8c0.2,0.2,0.5,0.5,0.9,0.6c0.4,0.2,0.9,0.3,1.5,0.3
					c0.3,0,0.7,0,1-0.1c0.3-0.1,0.6-0.1,0.9-0.3c0.3-0.1,0.5-0.3,0.7-0.6c0.2-0.2,0.3-0.5,0.3-0.9c0-0.3-0.1-0.5-0.2-0.7
					c-0.1-0.2-0.3-0.3-0.5-0.5c-0.2-0.1-0.5-0.2-0.8-0.3c-0.3-0.1-0.6-0.2-1-0.3l-1.4-0.4c-0.5-0.1-1.1-0.3-1.6-0.4
					c-0.5-0.2-1-0.4-1.4-0.7c-0.4-0.3-0.7-0.7-1-1.2c-0.2-0.5-0.4-1.1-0.4-1.9c0-0.3,0-0.6,0.1-0.9c0.1-0.3,0.2-0.6,0.3-1
					c0.1-0.3,0.3-0.6,0.6-1c0.2-0.3,0.6-0.6,0.9-0.8c0.4-0.2,0.8-0.4,1.4-0.6C16,8.1,16.6,8,17.4,8 M17.4,7c-0.8,0-1.5,0.1-2.1,0.3
					c-0.6,0.2-1.2,0.4-1.6,0.7c-0.5,0.3-0.9,0.7-1.2,1.1c-0.3,0.4-0.5,0.8-0.7,1.2c-0.2,0.4-0.3,0.8-0.4,1.2c-0.1,0.4-0.1,0.7-0.1,1
					c0,0.9,0.2,1.7,0.5,2.3c0.3,0.6,0.7,1.1,1.2,1.5c0.5,0.4,1,0.5,1.7,0.7c0.2,0.1,0.3,0,0.5,0h-0.4H12h-1v1.2
					c0,0.5,0.1,1.1,0.2,1.7c0.2,0.7,0.5,1.4,1,2c0.5,0.6,1.2,1.1,2.1,1.5c0.9,0.4,2,0.6,3.4,0.6c0.2,0,0.5,0,0.9-0.1
					c0.4,0,0.8-0.1,1.3-0.2c0.5-0.1,0.9-0.3,1.4-0.5c0.5-0.3,1-0.6,1.4-1c0.4-0.4,0.8-1,1-1.6c0.3-0.6,0.4-1.4,0.4-2.2
					c0-0.8-0.1-1.4-0.4-2c-0.2-0.6-0.6-1-1-1.4c-0.4-0.4-0.9-0.5-1.4-0.7C20.8,14.1,20.4,14,20,14h2.6H24v-1.4
					c0-0.5-0.3-1.1-0.5-1.7c-0.2-0.7-0.7-1.3-1.1-1.9c-0.5-0.6-1.2-1-2-1.4C19.6,7.2,18.5,7,17.4,7L17.4,7z M19,13.3l-2.5-0.7
					c-0.1,0-0.3-0.1-0.4-0.1c-0.1,0-0.1,0-0.2-0.1c0,0,0,0-0.1-0.1c0,0,0-0.1,0-0.2c0-0.1,0-0.2,0.1-0.3c0.1-0.1,0.1-0.2,0.2-0.2
					c0.1-0.1,0.3-0.1,0.5-0.2c0.2,0,0.4-0.1,0.6-0.1c0.6,0,0.9,0.1,1,0.2c0.3,0.1,0.4,0.2,0.5,0.3c0.1,0.1,0.1,0.2,0.2,0.3
					c0,0.2,0.1,0.4,0.1,0.5L19,13.3L19,13.3z M17.5,19.5c-0.6,0-0.9-0.1-1.1-0.2c-0.2-0.1-0.4-0.2-0.5-0.3c-0.1-0.1,0-0.2,0-0.4
					c-0.1-0.2,0.1-0.4,0.1-0.4v-0.8c0,0,0.2,0.1,0.4,0.1l1.4,0.4c0.3,0.1,0.6,0.2,0.9,0.3c0.2,0.1,0.4,0.2,0.5,0.2
					c0.1,0,0.1,0.1,0.2,0.1c0,0,0,0,0,0c0,0,0,0,0,0.2c0,0.2,0,0.3-0.1,0.4c-0.1,0.1-0.2,0.2-0.3,0.2c-0.2,0.1-0.4,0.2-0.6,0.2
					C18.1,19.5,17.8,19.5,17.5,19.5L17.5,19.5z"/>
			</g>
		</g>
	</g>
</g>
</svg>
